<mxfile host="Electron" modified="2023-05-28T14:31:48.217Z" agent="Mozilla/5.0 (Windows NT 10.0; Win64; x64) AppleWebKit/537.36 (KHTML, like Gecko) draw.io/21.1.2 Chrome/106.0.5249.199 Electron/21.4.3 Safari/537.36" etag="Y0phV71AT8FUiLyl0YjZ" version="21.1.2" type="device">
  <diagram name="Page-1" id="JHqD0HZ37JZOqglxJKok">
    <mxGraphModel dx="1206" dy="817" grid="1" gridSize="10" guides="1" tooltips="1" connect="1" arrows="1" fold="1" page="1" pageScale="1" pageWidth="850" pageHeight="1100" math="0" shadow="0">
      <root>
        <mxCell id="0" />
        <mxCell id="1" parent="0" />
        <mxCell id="R8RNZc-Fpih9AdWTo8Kz-25" style="edgeStyle=orthogonalEdgeStyle;rounded=0;orthogonalLoop=1;jettySize=auto;html=1;entryX=0.277;entryY=0.005;entryDx=0;entryDy=0;entryPerimeter=0;endArrow=diamondThin;endFill=0;endSize=26;" parent="1" source="R8RNZc-Fpih9AdWTo8Kz-1" target="R8RNZc-Fpih9AdWTo8Kz-20" edge="1">
          <mxGeometry relative="1" as="geometry">
            <Array as="points">
              <mxPoint x="112" y="160" />
            </Array>
          </mxGeometry>
        </mxCell>
        <mxCell id="R8RNZc-Fpih9AdWTo8Kz-30" style="edgeStyle=orthogonalEdgeStyle;rounded=0;orthogonalLoop=1;jettySize=auto;html=1;endArrow=diamondThin;endFill=0;endSize=26;exitX=0.571;exitY=0.991;exitDx=0;exitDy=0;exitPerimeter=0;" parent="1" source="R8RNZc-Fpih9AdWTo8Kz-4" target="R8RNZc-Fpih9AdWTo8Kz-26" edge="1">
          <mxGeometry relative="1" as="geometry" />
        </mxCell>
        <mxCell id="R8RNZc-Fpih9AdWTo8Kz-35" style="edgeStyle=orthogonalEdgeStyle;rounded=0;orthogonalLoop=1;jettySize=auto;html=1;entryX=0.208;entryY=0.005;entryDx=0;entryDy=0;entryPerimeter=0;endArrow=diamondThin;endFill=0;endSize=26;" parent="1" source="R8RNZc-Fpih9AdWTo8Kz-1" target="R8RNZc-Fpih9AdWTo8Kz-31" edge="1">
          <mxGeometry relative="1" as="geometry" />
        </mxCell>
        <mxCell id="SGoWfhM7XXmbDhEhSqne-3" style="edgeStyle=orthogonalEdgeStyle;rounded=0;orthogonalLoop=1;jettySize=auto;html=1;endArrow=diamondThin;endFill=0;endSize=24;" edge="1" parent="1" source="R8RNZc-Fpih9AdWTo8Kz-1" target="R8RNZc-Fpih9AdWTo8Kz-41">
          <mxGeometry relative="1" as="geometry">
            <Array as="points">
              <mxPoint x="320" y="290" />
              <mxPoint x="320" y="290" />
            </Array>
          </mxGeometry>
        </mxCell>
        <mxCell id="R8RNZc-Fpih9AdWTo8Kz-1" value="BooleanExpression" style="swimlane;fontStyle=3;align=center;verticalAlign=top;childLayout=stackLayout;horizontal=1;startSize=26;horizontalStack=0;resizeParent=1;resizeParentMax=0;resizeLast=0;collapsible=1;marginBottom=0;" parent="1" vertex="1">
          <mxGeometry x="260" y="110" width="230" height="110" as="geometry" />
        </mxCell>
        <mxCell id="R8RNZc-Fpih9AdWTo8Kz-3" value="" style="line;strokeWidth=1;fillColor=none;align=left;verticalAlign=middle;spacingTop=-1;spacingLeft=3;spacingRight=3;rotatable=0;labelPosition=right;points=[];portConstraint=eastwest;strokeColor=inherit;" parent="R8RNZc-Fpih9AdWTo8Kz-1" vertex="1">
          <mxGeometry y="26" width="230" height="8" as="geometry" />
        </mxCell>
        <mxCell id="R8RNZc-Fpih9AdWTo8Kz-4" value="+ evaluate(Context)&#xa;+ replace(name,BooleanExpression)&#xa;+ copy()" style="text;strokeColor=none;fillColor=none;align=left;verticalAlign=top;spacingLeft=4;spacingRight=4;overflow=hidden;rotatable=0;points=[[0,0.5],[1,0.5]];portConstraint=eastwest;fontStyle=2" parent="R8RNZc-Fpih9AdWTo8Kz-1" vertex="1">
          <mxGeometry y="34" width="230" height="76" as="geometry" />
        </mxCell>
        <mxCell id="R8RNZc-Fpih9AdWTo8Kz-20" value="AndExpression" style="swimlane;fontStyle=1;align=center;verticalAlign=top;childLayout=stackLayout;horizontal=1;startSize=26;horizontalStack=0;resizeParent=1;resizeParentMax=0;resizeLast=0;collapsible=1;marginBottom=0;" parent="1" vertex="1">
          <mxGeometry x="40" y="280" width="260" height="140" as="geometry" />
        </mxCell>
        <mxCell id="R8RNZc-Fpih9AdWTo8Kz-21" value="+ a: BooleanExpression&#xa;+ b: BooleanExpression" style="text;strokeColor=none;fillColor=none;align=left;verticalAlign=top;spacingLeft=4;spacingRight=4;overflow=hidden;rotatable=0;points=[[0,0.5],[1,0.5]];portConstraint=eastwest;" parent="R8RNZc-Fpih9AdWTo8Kz-20" vertex="1">
          <mxGeometry y="26" width="260" height="44" as="geometry" />
        </mxCell>
        <mxCell id="R8RNZc-Fpih9AdWTo8Kz-22" value="" style="line;strokeWidth=1;fillColor=none;align=left;verticalAlign=middle;spacingTop=-1;spacingLeft=3;spacingRight=3;rotatable=0;labelPosition=right;points=[];portConstraint=eastwest;strokeColor=inherit;" parent="R8RNZc-Fpih9AdWTo8Kz-20" vertex="1">
          <mxGeometry y="70" width="260" height="8" as="geometry" />
        </mxCell>
        <mxCell id="R8RNZc-Fpih9AdWTo8Kz-23" value="+ evaluate(Context)&#xa;+ replace(name,BooleanExpression)&#xa;+ copy()" style="text;strokeColor=none;fillColor=none;align=left;verticalAlign=top;spacingLeft=4;spacingRight=4;overflow=hidden;rotatable=0;points=[[0,0.5],[1,0.5]];portConstraint=eastwest;" parent="R8RNZc-Fpih9AdWTo8Kz-20" vertex="1">
          <mxGeometry y="78" width="260" height="62" as="geometry" />
        </mxCell>
        <mxCell id="R8RNZc-Fpih9AdWTo8Kz-24" style="edgeStyle=orthogonalEdgeStyle;rounded=0;orthogonalLoop=1;jettySize=auto;html=1;entryX=0.5;entryY=0;entryDx=0;entryDy=0;endArrow=diamondThin;endFill=0;endSize=26;" parent="1" source="R8RNZc-Fpih9AdWTo8Kz-4" target="R8RNZc-Fpih9AdWTo8Kz-20" edge="1">
          <mxGeometry relative="1" as="geometry" />
        </mxCell>
        <mxCell id="R8RNZc-Fpih9AdWTo8Kz-26" value="OrExpression" style="swimlane;fontStyle=1;align=center;verticalAlign=top;childLayout=stackLayout;horizontal=1;startSize=26;horizontalStack=0;resizeParent=1;resizeParentMax=0;resizeLast=0;collapsible=1;marginBottom=0;" parent="1" vertex="1">
          <mxGeometry x="340" y="280" width="260" height="140" as="geometry" />
        </mxCell>
        <mxCell id="R8RNZc-Fpih9AdWTo8Kz-27" value="+ a: BooleanExpression&#xa;+ b: BooleanExpression" style="text;strokeColor=none;fillColor=none;align=left;verticalAlign=top;spacingLeft=4;spacingRight=4;overflow=hidden;rotatable=0;points=[[0,0.5],[1,0.5]];portConstraint=eastwest;" parent="R8RNZc-Fpih9AdWTo8Kz-26" vertex="1">
          <mxGeometry y="26" width="260" height="44" as="geometry" />
        </mxCell>
        <mxCell id="R8RNZc-Fpih9AdWTo8Kz-28" value="" style="line;strokeWidth=1;fillColor=none;align=left;verticalAlign=middle;spacingTop=-1;spacingLeft=3;spacingRight=3;rotatable=0;labelPosition=right;points=[];portConstraint=eastwest;strokeColor=inherit;" parent="R8RNZc-Fpih9AdWTo8Kz-26" vertex="1">
          <mxGeometry y="70" width="260" height="8" as="geometry" />
        </mxCell>
        <mxCell id="R8RNZc-Fpih9AdWTo8Kz-29" value="+ evaluate(Context)&#xa;+ replace(name,BooleanExpression)&#xa;+ copy()" style="text;strokeColor=none;fillColor=none;align=left;verticalAlign=top;spacingLeft=4;spacingRight=4;overflow=hidden;rotatable=0;points=[[0,0.5],[1,0.5]];portConstraint=eastwest;" parent="R8RNZc-Fpih9AdWTo8Kz-26" vertex="1">
          <mxGeometry y="78" width="260" height="62" as="geometry" />
        </mxCell>
        <mxCell id="R8RNZc-Fpih9AdWTo8Kz-31" value="NoExpression" style="swimlane;fontStyle=1;align=center;verticalAlign=top;childLayout=stackLayout;horizontal=1;startSize=26;horizontalStack=0;resizeParent=1;resizeParentMax=0;resizeLast=0;collapsible=1;marginBottom=0;" parent="1" vertex="1">
          <mxGeometry x="620" y="280" width="260" height="140" as="geometry" />
        </mxCell>
        <mxCell id="R8RNZc-Fpih9AdWTo8Kz-32" value="+ a: BooleanExpression&#xa;" style="text;strokeColor=none;fillColor=none;align=left;verticalAlign=top;spacingLeft=4;spacingRight=4;overflow=hidden;rotatable=0;points=[[0,0.5],[1,0.5]];portConstraint=eastwest;" parent="R8RNZc-Fpih9AdWTo8Kz-31" vertex="1">
          <mxGeometry y="26" width="260" height="44" as="geometry" />
        </mxCell>
        <mxCell id="R8RNZc-Fpih9AdWTo8Kz-33" value="" style="line;strokeWidth=1;fillColor=none;align=left;verticalAlign=middle;spacingTop=-1;spacingLeft=3;spacingRight=3;rotatable=0;labelPosition=right;points=[];portConstraint=eastwest;strokeColor=inherit;" parent="R8RNZc-Fpih9AdWTo8Kz-31" vertex="1">
          <mxGeometry y="70" width="260" height="8" as="geometry" />
        </mxCell>
        <mxCell id="R8RNZc-Fpih9AdWTo8Kz-34" value="+ evaluate(Context)&#xa;+ replace(name,BooleanExpression)&#xa;+ copy()" style="text;strokeColor=none;fillColor=none;align=left;verticalAlign=top;spacingLeft=4;spacingRight=4;overflow=hidden;rotatable=0;points=[[0,0.5],[1,0.5]];portConstraint=eastwest;" parent="R8RNZc-Fpih9AdWTo8Kz-31" vertex="1">
          <mxGeometry y="78" width="260" height="62" as="geometry" />
        </mxCell>
        <mxCell id="R8RNZc-Fpih9AdWTo8Kz-36" value="Context" style="swimlane;fontStyle=1;align=center;verticalAlign=top;childLayout=stackLayout;horizontal=1;startSize=26;horizontalStack=0;resizeParent=1;resizeParentMax=0;resizeLast=0;collapsible=1;marginBottom=0;" parent="1" vertex="1">
          <mxGeometry x="700" y="30" width="160" height="110" as="geometry" />
        </mxCell>
        <mxCell id="R8RNZc-Fpih9AdWTo8Kz-37" value="+ values: Dictionary" style="text;strokeColor=none;fillColor=none;align=left;verticalAlign=top;spacingLeft=4;spacingRight=4;overflow=hidden;rotatable=0;points=[[0,0.5],[1,0.5]];portConstraint=eastwest;" parent="R8RNZc-Fpih9AdWTo8Kz-36" vertex="1">
          <mxGeometry y="26" width="160" height="26" as="geometry" />
        </mxCell>
        <mxCell id="R8RNZc-Fpih9AdWTo8Kz-38" value="" style="line;strokeWidth=1;fillColor=none;align=left;verticalAlign=middle;spacingTop=-1;spacingLeft=3;spacingRight=3;rotatable=0;labelPosition=right;points=[];portConstraint=eastwest;strokeColor=inherit;" parent="R8RNZc-Fpih9AdWTo8Kz-36" vertex="1">
          <mxGeometry y="52" width="160" height="8" as="geometry" />
        </mxCell>
        <mxCell id="R8RNZc-Fpih9AdWTo8Kz-39" value="+ look_up(name)&#xa;+ assign(name, Boolean)" style="text;strokeColor=none;fillColor=none;align=left;verticalAlign=top;spacingLeft=4;spacingRight=4;overflow=hidden;rotatable=0;points=[[0,0.5],[1,0.5]];portConstraint=eastwest;" parent="R8RNZc-Fpih9AdWTo8Kz-36" vertex="1">
          <mxGeometry y="60" width="160" height="50" as="geometry" />
        </mxCell>
        <mxCell id="R8RNZc-Fpih9AdWTo8Kz-40" value="Use" style="endArrow=open;endSize=12;dashed=1;html=1;rounded=0;entryX=-0.025;entryY=0.347;entryDx=0;entryDy=0;entryPerimeter=0;" parent="1" target="R8RNZc-Fpih9AdWTo8Kz-39" edge="1">
          <mxGeometry width="160" relative="1" as="geometry">
            <mxPoint x="490" y="110" as="sourcePoint" />
            <mxPoint x="650" y="110" as="targetPoint" />
          </mxGeometry>
        </mxCell>
        <mxCell id="R8RNZc-Fpih9AdWTo8Kz-41" value="VariableExpression" style="swimlane;fontStyle=1;align=center;verticalAlign=top;childLayout=stackLayout;horizontal=1;startSize=26;horizontalStack=0;resizeParent=1;resizeParentMax=0;resizeLast=0;collapsible=1;marginBottom=0;" parent="1" vertex="1">
          <mxGeometry x="190" y="480" width="260" height="140" as="geometry" />
        </mxCell>
        <mxCell id="R8RNZc-Fpih9AdWTo8Kz-42" value="+ name" style="text;strokeColor=none;fillColor=none;align=left;verticalAlign=top;spacingLeft=4;spacingRight=4;overflow=hidden;rotatable=0;points=[[0,0.5],[1,0.5]];portConstraint=eastwest;" parent="R8RNZc-Fpih9AdWTo8Kz-41" vertex="1">
          <mxGeometry y="26" width="260" height="44" as="geometry" />
        </mxCell>
        <mxCell id="R8RNZc-Fpih9AdWTo8Kz-43" value="" style="line;strokeWidth=1;fillColor=none;align=left;verticalAlign=middle;spacingTop=-1;spacingLeft=3;spacingRight=3;rotatable=0;labelPosition=right;points=[];portConstraint=eastwest;strokeColor=inherit;" parent="R8RNZc-Fpih9AdWTo8Kz-41" vertex="1">
          <mxGeometry y="70" width="260" height="8" as="geometry" />
        </mxCell>
        <mxCell id="R8RNZc-Fpih9AdWTo8Kz-44" value="+ evaluate(Context)&#xa;+ replace(name,BooleanExpression)&#xa;+ copy()" style="text;strokeColor=none;fillColor=none;align=left;verticalAlign=top;spacingLeft=4;spacingRight=4;overflow=hidden;rotatable=0;points=[[0,0.5],[1,0.5]];portConstraint=eastwest;" parent="R8RNZc-Fpih9AdWTo8Kz-41" vertex="1">
          <mxGeometry y="78" width="260" height="62" as="geometry" />
        </mxCell>
        <mxCell id="R8RNZc-Fpih9AdWTo8Kz-47" value="" style="shape=note;whiteSpace=wrap;html=1;backgroundOutline=1;darkOpacity=0.05;fillColor=#f5f5f5;fontColor=#333333;strokeColor=#666666;" parent="1" vertex="1">
          <mxGeometry x="500" y="483" width="410" height="174" as="geometry" />
        </mxCell>
        <mxCell id="SGoWfhM7XXmbDhEhSqne-1" value="c = Context()&lt;br&gt;x = VariableExpression(&#39;X&#39;)&lt;br&gt;y = VariableExpression(&#39;Y&#39;)&lt;br&gt;&lt;br&gt;exp = AndExpression(NotExpression(x),y)&lt;br&gt;&lt;br&gt;c.assign(x,False)&lt;br&gt;c.assign(y,True)&lt;br&gt;&lt;br&gt;print(exp.evaluate(c))" style="text;html=1;strokeColor=none;fillColor=none;align=left;verticalAlign=middle;whiteSpace=wrap;rounded=0;" vertex="1" parent="1">
          <mxGeometry x="530" y="450" width="280" height="240" as="geometry" />
        </mxCell>
      </root>
    </mxGraphModel>
  </diagram>
</mxfile>
